<svg xmlns="http://www.w3.org/2000/svg" xmlns:xlink="http://www.w3.org/1999/xlink" xmlns:s="https://github.com/nturley/netlistsvg" width="733" height="437">
  <style>svg {
    stroke:#000;
    fill:none;
  }
  text {
    fill:#000;
    stroke:none;
    font-size:10px;
    font-weight: bold;
    font-family: "Courier New", monospace;
  }
  .nodelabel {
    text-anchor: middle;
  }
  .inputPortLabel {
    text-anchor: end;
  }
  .splitjoinBody {
    fill:#000;
  }</style>
  <g s:type="generic" transform="translate(612,160)" s:width="30" s:height="40" id="cell_acc0">
    <text x="15" y="-4" class="nodelabel cell_acc0" s:attribute="ref">acc</text>
    <rect width="30" height="80" s:generic="body" class="cell_acc0"/>
    <g transform="translate(0,10)" s:x="0" s:y="10" s:pid="in0" id="port_acc0~A">
      <text x="-3" y="-4" class="inputPortLabel cell_acc0">A</text>
    </g>
    <g transform="translate(0,30)" s:x="0" s:y="10" s:pid="in0" id="port_acc0~add">
      <text x="-3" y="-4" class="inputPortLabel cell_acc0">add</text>
    </g>
    <g transform="translate(0,50)" s:x="0" s:y="10" s:pid="in0" id="port_acc0~clk">
      <text x="-3" y="-4" class="inputPortLabel cell_acc0">clk</text>
    </g>
    <g transform="translate(0,70)" s:x="0" s:y="10" s:pid="in0" id="port_acc0~rst">
      <text x="-3" y="-4" class="inputPortLabel cell_acc0">rst</text>
    </g>
    <g transform="translate(30,10)" s:x="30" s:y="10" s:pid="out0" id="port_acc0~pp">
      <text x="5" y="-4" style="fill:#000; stroke:none" class="cell_acc0">pp</text>
    </g>
  </g>
  <g s:type="generic" transform="translate(205,338)" s:width="30" s:height="40" id="cell_comp0">
    <text x="15" y="-4" class="nodelabel cell_comp0" s:attribute="ref">comp</text>
    <rect width="30" height="20" s:generic="body" class="cell_comp0"/>
    <g transform="translate(0,10)" s:x="0" s:y="10" s:pid="in0" id="port_comp0~B">
      <text x="-3" y="-4" class="inputPortLabel cell_comp0">B</text>
    </g>
    <g transform="translate(30,10)" s:x="30" s:y="10" s:pid="out0" id="port_comp0~z">
      <text x="5" y="-4" style="fill:#000; stroke:none" class="cell_comp0">z</text>
    </g>
  </g>
  <g s:type="generic" transform="translate(309,180)" s:width="30" s:height="40" id="cell_control0">
    <text x="15" y="-4" class="nodelabel cell_control0" s:attribute="ref">control_mult</text>
    <rect width="30" height="100" s:generic="body" class="cell_control0"/>
    <g transform="translate(0,10)" s:x="0" s:y="10" s:pid="in0" id="port_control0~clk">
      <text x="-3" y="-4" class="inputPortLabel cell_control0">clk</text>
    </g>
    <g transform="translate(0,30)" s:x="0" s:y="10" s:pid="in0" id="port_control0~init">
      <text x="-3" y="-4" class="inputPortLabel cell_control0">init</text>
    </g>
    <g transform="translate(0,50)" s:x="0" s:y="10" s:pid="in0" id="port_control0~lsb_B">
      <text x="-3" y="-4" class="inputPortLabel cell_control0">lsb_B</text>
    </g>
    <g transform="translate(0,70)" s:x="0" s:y="10" s:pid="in0" id="port_control0~rst">
      <text x="-3" y="-4" class="inputPortLabel cell_control0">rst</text>
    </g>
    <g transform="translate(0,90)" s:x="0" s:y="10" s:pid="in0" id="port_control0~z">
      <text x="-3" y="-4" class="inputPortLabel cell_control0">z</text>
    </g>
    <g transform="translate(30,10)" s:x="30" s:y="10" s:pid="out0" id="port_control0~add">
      <text x="5" y="-4" style="fill:#000; stroke:none" class="cell_control0">add</text>
    </g>
    <g transform="translate(30,30)" s:x="30" s:y="10" s:pid="out0" id="port_control0~done">
      <text x="5" y="-4" style="fill:#000; stroke:none" class="cell_control0">done</text>
    </g>
    <g transform="translate(30,50)" s:x="30" s:y="10" s:pid="out0" id="port_control0~reset">
      <text x="5" y="-4" style="fill:#000; stroke:none" class="cell_control0">reset</text>
    </g>
    <g transform="translate(30,70)" s:x="30" s:y="10" s:pid="out0" id="port_control0~sh">
      <text x="5" y="-4" style="fill:#000; stroke:none" class="cell_control0">sh</text>
    </g>
  </g>
  <g s:type="generic" transform="translate(442,32.5)" s:width="30" s:height="40" id="cell_lsr0">
    <text x="15" y="-4" class="nodelabel cell_lsr0" s:attribute="ref">lsr</text>
    <rect width="30" height="80" s:generic="body" class="cell_lsr0"/>
    <g transform="translate(0,10)" s:x="0" s:y="10" s:pid="in0" id="port_lsr0~clk">
      <text x="-3" y="-4" class="inputPortLabel cell_lsr0">clk</text>
    </g>
    <g transform="translate(0,30)" s:x="0" s:y="10" s:pid="in0" id="port_lsr0~in_A">
      <text x="-3" y="-4" class="inputPortLabel cell_lsr0">in_A</text>
    </g>
    <g transform="translate(0,50)" s:x="0" s:y="10" s:pid="in0" id="port_lsr0~load">
      <text x="-3" y="-4" class="inputPortLabel cell_lsr0">load</text>
    </g>
    <g transform="translate(0,70)" s:x="0" s:y="10" s:pid="in0" id="port_lsr0~shift">
      <text x="-3" y="-4" class="inputPortLabel cell_lsr0">shift</text>
    </g>
    <g transform="translate(30,10)" s:x="30" s:y="10" s:pid="out0" id="port_lsr0~s_A">
      <text x="5" y="-4" style="fill:#000; stroke:none" class="cell_lsr0">s_A</text>
    </g>
  </g>
  <g s:type="generic" transform="translate(113,242.5)" s:width="30" s:height="40" id="cell_rsr0">
    <text x="15" y="-4" class="nodelabel cell_rsr0" s:attribute="ref">rsr</text>
    <rect width="30" height="80" s:generic="body" class="cell_rsr0"/>
    <g transform="translate(0,10)" s:x="0" s:y="10" s:pid="in0" id="port_rsr0~clk">
      <text x="-3" y="-4" class="inputPortLabel cell_rsr0">clk</text>
    </g>
    <g transform="translate(0,30)" s:x="0" s:y="10" s:pid="in0" id="port_rsr0~in_B">
      <text x="-3" y="-4" class="inputPortLabel cell_rsr0">in_B</text>
    </g>
    <g transform="translate(0,50)" s:x="0" s:y="10" s:pid="in0" id="port_rsr0~load">
      <text x="-3" y="-4" class="inputPortLabel cell_rsr0">load</text>
    </g>
    <g transform="translate(0,70)" s:x="0" s:y="10" s:pid="in0" id="port_rsr0~shift">
      <text x="-3" y="-4" class="inputPortLabel cell_rsr0">shift</text>
    </g>
    <g transform="translate(30,10)" s:x="30" s:y="10" s:pid="out0" id="port_rsr0~s_B">
      <text x="5" y="-4" style="fill:#000; stroke:none" class="cell_rsr0">s_B</text>
    </g>
  </g>
  <g s:type="inputExt" transform="translate(12,22)" s:width="30" s:height="20" id="cell_clk">
    <text x="15" y="-4" class="nodelabel cell_clk" s:attribute="ref">clk</text>
    <s:alias val="$_inputExt_"/>
    <path d="M0,0 L0,20 L15,20 L30,10 L15,0 Z" class="cell_clk"/>
    <g s:x="28" s:y="10" s:pid="Y"/>
  </g>
  <g s:type="inputExt" transform="translate(205,273)" s:width="30" s:height="20" id="cell_rst">
    <text x="15" y="-4" class="nodelabel cell_rst" s:attribute="ref">rst</text>
    <s:alias val="$_inputExt_"/>
    <path d="M0,0 L0,20 L15,20 L30,10 L15,0 Z" class="cell_rst"/>
    <g s:x="28" s:y="10" s:pid="Y"/>
  </g>
  <g s:type="inputExt" transform="translate(205,165)" s:width="30" s:height="20" id="cell_init">
    <text x="15" y="-4" class="nodelabel cell_init" s:attribute="ref">init</text>
    <s:alias val="$_inputExt_"/>
    <path d="M0,0 L0,20 L15,20 L30,10 L15,0 Z" class="cell_init"/>
    <g s:x="28" s:y="10" s:pid="Y"/>
  </g>
  <g s:type="inputExt" transform="translate(309,53)" s:width="30" s:height="20" id="cell_A">
    <text x="15" y="-4" class="nodelabel cell_A" s:attribute="ref">A</text>
    <s:alias val="$_inputExt_"/>
    <path d="M0,0 L0,20 L15,20 L30,10 L15,0 Z" class="cell_A"/>
    <g s:x="28" s:y="10" s:pid="Y"/>
  </g>
  <g s:type="inputExt" transform="translate(12,263)" s:width="30" s:height="20" id="cell_B">
    <text x="15" y="-4" class="nodelabel cell_B" s:attribute="ref">B</text>
    <s:alias val="$_inputExt_"/>
    <path d="M0,0 L0,20 L15,20 L30,10 L15,0 Z" class="cell_B"/>
    <g s:x="28" s:y="10" s:pid="Y"/>
  </g>
  <g s:type="outputExt" transform="translate(691,160.5)" s:width="30" s:height="20" id="cell_pp">
    <text x="15" y="-4" class="nodelabel cell_pp" s:attribute="ref">pp</text>
    <s:alias val="$_outputExt_"/>
    <path d="M30,0 L30,20 L15,20 L0,10 L15,0 Z" class="cell_pp"/>
    <g s:x="0" s:y="10" s:pid="A"/>
  </g>
  <g s:type="outputExt" transform="translate(691,405)" s:width="30" s:height="20" id="cell_done">
    <text x="15" y="-4" class="nodelabel cell_done" s:attribute="ref">done</text>
    <s:alias val="$_outputExt_"/>
    <path d="M30,0 L30,20 L15,20 L0,10 L15,0 Z" class="cell_done"/>
    <g s:x="0" s:y="10" s:pid="A"/>
  </g>
  <g s:type="constant" transform="translate(442,160.5)" s:width="30" s:height="20" id="cell_0">
    <text x="15" y="-4" class="nodelabel cell_0" s:attribute="ref">0</text>
    <s:alias val="$_constant_"/>
    <rect width="30" height="20" class="cell_0"/>
    <g s:x="30" s:y="10" s:pid="Y"/>
  </g>
  <g s:type="join" transform="translate(552,32.5)" s:width="4" s:height="40" id="cell_$join$,70,71,72,73,74,75,76,77,78,79,80,81,82,83,84,85,86,87,88,89,90,91,92,93,94,95,96,97,98,99,100,121,">
    <rect width="5" height="40" class="splitjoinBody" s:generic="body"/>
    <s:alias val="$_join_"/>
    <g s:x="5" s:y="20" s:pid="out"/>
    <g transform="translate(0,10)" s:x="0" s:y="10" s:pid="in0">
      <text x="-3" y="-4" class="inputPortLabel">0:30</text>
    </g>
    <g transform="translate(0,30)" s:x="0" s:y="10" s:pid="in0">
      <text x="-3" y="-4" class="inputPortLabel">31</text>
    </g>
  </g>
  <g s:type="split" transform="translate(230,220)" s:width="5" s:height="40" id="cell_$split$,103,104,105,106,107,108,109,110,111,112,113,114,115,116,117,118,">
    <rect width="5" height="20" class="splitjoinBody" s:generic="body"/>
    <s:alias val="$_split_"/>
    <g s:x="0" s:y="20" s:pid="in"/>
    <g transform="translate(4,10)" s:x="4" s:y="10" s:pid="out0">
      <text x="5" y="-4">0</text>
    </g>
  </g>
  <line x1="558" x2="568" y1="53" y2="53" class="net_70,71,72,73,74,75,76,77,78,79,80,81,82,83,84,85,86,87,88,89,90,91,92,93,94,95,96,97,98,99,100,121"/>
  <line x1="568" x2="568" y1="53" y2="170.5" class="net_70,71,72,73,74,75,76,77,78,79,80,81,82,83,84,85,86,87,88,89,90,91,92,93,94,95,96,97,98,99,100,121"/>
  <line x1="568" x2="612" y1="170.5" y2="170.5" class="net_70,71,72,73,74,75,76,77,78,79,80,81,82,83,84,85,86,87,88,89,90,91,92,93,94,95,96,97,98,99,100,121"/>
  <line x1="340" x2="612" y1="190.5" y2="190.5" class="net_101"/>
  <line x1="40" x2="52" y1="32" y2="32" class="net_2"/>
  <line x1="52" x2="52" y1="32" y2="393" class="net_2"/>
  <line x1="52" x2="568" y1="393" y2="393" class="net_2"/>
  <line x1="568" x2="568" y1="393" y2="210.5" class="net_2"/>
  <circle cx="52" cy="32" r="2" style="fill:#000" class="net_2"/>
  <line x1="568" x2="612" y1="210.5" y2="210.5" class="net_2"/>
  <line x1="40" x2="263" y1="32" y2="32" class="net_2"/>
  <line x1="263" x2="263" y1="32" y2="190.5" class="net_2"/>
  <circle cx="263" cy="32" r="2" style="fill:#000" class="net_2"/>
  <line x1="263" x2="309" y1="190.5" y2="190.5" class="net_2"/>
  <line x1="40" x2="381" y1="32" y2="32" class="net_2"/>
  <line x1="381" x2="381" y1="32" y2="43" class="net_2"/>
  <line x1="381" x2="442" y1="43" y2="43" class="net_2"/>
  <line x1="40" x2="52" y1="32" y2="32" class="net_2"/>
  <line x1="52" x2="52" y1="32" y2="253" class="net_2"/>
  <circle cx="52" cy="253" r="2" style="fill:#000" class="net_2"/>
  <line x1="52" x2="113" y1="253" y2="253" class="net_2"/>
  <line x1="340" x2="381" y1="230.5" y2="230.5" class="net_102"/>
  <line x1="381" x2="381" y1="230.5" y2="404" class="net_102"/>
  <line x1="381" x2="578" y1="404" y2="404" class="net_102"/>
  <line x1="578" x2="578" y1="404" y2="230.5" class="net_102"/>
  <circle cx="381" cy="230.5" r="2" style="fill:#000" class="net_102"/>
  <line x1="578" x2="612" y1="230.5" y2="230.5" class="net_102"/>
  <line x1="340" x2="381" y1="230.5" y2="230.5" class="net_102"/>
  <line x1="381" x2="381" y1="230.5" y2="83" class="net_102"/>
  <line x1="381" x2="442" y1="83" y2="83" class="net_102"/>
  <line x1="340" x2="381" y1="230.5" y2="230.5" class="net_102"/>
  <line x1="381" x2="381" y1="230.5" y2="371" class="net_102"/>
  <line x1="381" x2="62" y1="371" y2="371" class="net_102"/>
  <line x1="62" x2="62" y1="371" y2="293" class="net_102"/>
  <circle cx="381" cy="371" r="2" style="fill:#000" class="net_102"/>
  <line x1="62" x2="113" y1="293" y2="293" class="net_102"/>
  <line x1="144" x2="173" y1="253" y2="253" class="net_103,104,105,106,107,108,109,110,111,112,113,114,115,116,117,118"/>
  <line x1="173" x2="173" y1="253" y2="348.5" class="net_103,104,105,106,107,108,109,110,111,112,113,114,115,116,117,118"/>
  <circle cx="173" cy="253" r="2" style="fill:#000" class="net_103,104,105,106,107,108,109,110,111,112,113,114,115,116,117,118"/>
  <line x1="173" x2="205" y1="348.5" y2="348.5" class="net_103,104,105,106,107,108,109,110,111,112,113,114,115,116,117,118"/>
  <line x1="144" x2="230.5" y1="253" y2="253" class="net_103,104,105,106,107,108,109,110,111,112,113,114,115,116,117,118"/>
  <line x1="230.5" x2="230.5" y1="253" y2="241" class="net_103,104,105,106,107,108,109,110,111,112,113,114,115,116,117,118"/>
  <line x1="233" x2="253" y1="175" y2="175" class="net_4"/>
  <line x1="253" x2="253" y1="175" y2="210.5" class="net_4"/>
  <line x1="253" x2="309" y1="210.5" y2="210.5" class="net_4"/>
  <line x1="235" x2="309" y1="230.5" y2="230.5" class="net_103"/>
  <line x1="233" x2="253" y1="283" y2="283" class="net_3"/>
  <line x1="253" x2="253" y1="283" y2="250.5" class="net_3"/>
  <line x1="253" x2="309" y1="250.5" y2="250.5" class="net_3"/>
  <line x1="236" x2="263" y1="348.5" y2="348.5" class="net_119"/>
  <line x1="263" x2="263" y1="348.5" y2="270.5" class="net_119"/>
  <line x1="263" x2="309" y1="270.5" y2="270.5" class="net_119"/>
  <line x1="337" x2="442" y1="63" y2="63" class="net_5,6,7,8,9,10,11,12,13,14,15,16,17,18,19,20"/>
  <line x1="340" x2="391" y1="250.5" y2="250.5" class="net_120"/>
  <line x1="391" x2="391" y1="250.5" y2="103" class="net_120"/>
  <circle cx="391" cy="250.5" r="2" style="fill:#000" class="net_120"/>
  <line x1="391" x2="442" y1="103" y2="103" class="net_120"/>
  <line x1="340" x2="391" y1="250.5" y2="250.5" class="net_120"/>
  <line x1="391" x2="391" y1="250.5" y2="382" class="net_120"/>
  <line x1="391" x2="72" y1="382" y2="382" class="net_120"/>
  <line x1="72" x2="72" y1="382" y2="313" class="net_120"/>
  <line x1="72" x2="113" y1="313" y2="313" class="net_120"/>
  <line x1="40" x2="113" y1="273" y2="273" class="net_21,22,23,24,25,26,27,28,29,30,31,32,33,34,35,36"/>
  <line x1="643" x2="691" y1="170.5" y2="170.5" class="net_37,38,39,40,41,42,43,44,45,46,47,48,49,50,51,52,53,54,55,56,57,58,59,60,61,62,63,64,65,66,67,68"/>
  <line x1="340" x2="401" y1="210.5" y2="210.5" class="net_69"/>
  <line x1="401" x2="401" y1="210.5" y2="415" class="net_69"/>
  <line x1="401" x2="691" y1="415" y2="415" class="net_69"/>
  <line x1="473" x2="552" y1="43" y2="43" class="net_70,71,72,73,74,75,76,77,78,79,80,81,82,83,84,85,86,87,88,89,90,91,92,93,94,95,96,97,98,99,100"/>
  <line x1="472" x2="502" y1="170.5" y2="170.5" class="net_121"/>
  <line x1="502" x2="502" y1="170.5" y2="63" class="net_121"/>
  <line x1="502" x2="552" y1="63" y2="63" class="net_121"/>
</svg>
